<?xml version="1.0" encoding="utf-8"?>
<!-- Generator: Adobe Illustrator 15.1.0, SVG Export Plug-In . SVG Version: 6.00 Build 0)  -->
<!DOCTYPE svg PUBLIC "-//W3C//DTD SVG 1.1//EN" "http://www.w3.org/Graphics/SVG/1.1/DTD/svg11.dtd">
<svg version="1.1" id="Layer_1" xmlns="http://www.w3.org/2000/svg" xmlns:xlink="http://www.w3.org/1999/xlink" x="0px" y="0px"
	 width="1024px" height="768px" viewBox="0 0 1024 768" enable-background="new 0 0 1024 768" xml:space="preserve">
<line fill="none" stroke="#000000" stroke-width="3" stroke-miterlimit="10" x1="378.615" y1="409" x2="598.615" y2="406.692"/>
<line fill="none" stroke="#000000" stroke-width="3" stroke-miterlimit="10" x1="598.615" y1="406.692" x2="447.923" y2="250.539"/>
<line fill="none" stroke="#000000" stroke-width="3" stroke-miterlimit="10" x1="447.923" y1="250.539" x2="378.615" y2="409"/>
<line fill="none" stroke="#000000" stroke-width="3" stroke-miterlimit="10" x1="378.615" y1="409" x2="491.692" y2="578.23"/>
<line fill="none" stroke="#000000" stroke-width="3" stroke-miterlimit="10" x1="491.692" y1="578.23" x2="598.615" y2="406.692"/>
<line fill="none" stroke="#000000" stroke-width="3" stroke-miterlimit="10" x1="598.615" y1="406.692" x2="705.538" y2="257.461"/>
<line fill="none" stroke="#000000" stroke-width="3" stroke-miterlimit="10" x1="705.538" y1="257.461" x2="447.923" y2="250.539"/>
<line fill="none" stroke="#000000" stroke-width="3" stroke-miterlimit="10" x1="705.538" y1="257.461" x2="803.23" y2="439"/>
<line fill="none" stroke="#000000" stroke-width="3" stroke-miterlimit="10" x1="803.23" y1="439" x2="598.615" y2="406.692"/>
<line fill="none" stroke="#000000" stroke-width="3" stroke-miterlimit="10" x1="378.615" y1="409" x2="303.231" y2="272.077"/>
<line fill="none" stroke="#000000" stroke-width="3" stroke-miterlimit="10" x1="303.231" y1="272.077" x2="447.923" y2="250.539"/>
<line fill="none" stroke="#000000" stroke-width="3" stroke-miterlimit="10" x1="378.615" y1="409" x2="199.385" y2="467.462"/>
<line fill="none" stroke="#000000" stroke-width="3" stroke-miterlimit="10" x1="199.385" y1="467.462" x2="303.231" y2="272.077"/>
<line fill="none" stroke="#000000" stroke-width="3" stroke-miterlimit="10" x1="378.615" y1="409" x2="322.461" y2="565.154"/>
<line fill="none" stroke="#000000" stroke-width="3" stroke-miterlimit="10" x1="322.461" y1="565.154" x2="491.692" y2="578.23"/>
<line fill="none" stroke="#000000" stroke-width="3" stroke-miterlimit="10" x1="491.692" y1="578.23" x2="684.77" y2="565.154"/>
<line fill="none" stroke="#000000" stroke-width="3" stroke-miterlimit="10" x1="684.77" y1="565.154" x2="598.615" y2="406.692"/>
<line fill="none" stroke="#000000" stroke-width="3" stroke-miterlimit="10" x1="803.23" y1="439" x2="684.77" y2="565.154"/>
<line fill="none" stroke="#000000" stroke-width="3" stroke-miterlimit="10" x1="322.461" y1="565.154" x2="199.385" y2="467.462"/>
<line fill="none" stroke="#000000" stroke-width="3" stroke-miterlimit="10" x1="199.385" y1="467.462" x2="110.923" y2="586.692"/>
<line fill="none" stroke="#000000" stroke-width="3" stroke-miterlimit="10" x1="322.461" y1="565.154" x2="307.077" y2="677.462"/>
<line fill="none" stroke="#000000" stroke-width="3" stroke-miterlimit="10" x1="491.692" y1="578.23" x2="506.308" y2="687.462"/>
<line fill="none" stroke="#000000" stroke-width="3" stroke-miterlimit="10" x1="684.77" y1="565.154" x2="760.154" y2="662.077"/>
<line fill="none" stroke="#000000" stroke-width="3" stroke-miterlimit="10" x1="803.23" y1="439" x2="919.385" y2="461.308"/>
<line fill="none" stroke="#000000" stroke-width="3" stroke-miterlimit="10" x1="303.231" y1="272.077" x2="155.154" y2="195.663"/>
<line fill="none" stroke="#000000" stroke-width="3" stroke-miterlimit="10" x1="199.385" y1="467.462" x2="38.332" y2="396.996"/>
<line fill="none" stroke="#000000" stroke-width="3" stroke-miterlimit="10" x1="705.538" y1="257.461" x2="861.308" y2="192.329"/>
<line fill="none" stroke="#000000" stroke-width="3" stroke-miterlimit="10" x1="447.923" y1="250.539" x2="474.998" y2="147.663"/>
<rect x="393.665" y="410.662" fill="none" width="82.667" height="62.667"/>
<text transform="matrix(1 0 0 1 393.6646 427.7021)"><tspan x="0" y="0" font-family="'MyriadPro-Regular'" font-size="24">P</tspan><tspan x="12.768" y="0" font-family="'MyriadPro-Regular'" font-size="12">i</tspan></text>
<rect x="455.665" y="228.975" fill="none" width="82.667" height="62.667"/>
<text transform="matrix(1 0 0 1 455.6646 246.0146)"><tspan x="0" y="0" font-family="'MyriadPro-Regular'" font-size="24">Pn</tspan><tspan x="26.088" y="0" font-family="'MyriadPro-Regular'" font-size="12">1</tspan></text>
<rect x="299.59" y="246.641" fill="none" width="82.667" height="62.667"/>
<text transform="matrix(1 0 0 1 299.5898 263.6812)"><tspan x="0" y="0" font-family="'MyriadPro-Regular'" font-size="24">Pn</tspan><tspan x="26.088" y="0" font-family="'MyriadPro-Regular'" font-size="12">2</tspan></text>
<rect x="375.577" y="540.358" fill="none" width="82.667" height="62.667"/>
<text transform="matrix(1 0 0 1 375.5771 557.3984)"><tspan x="0" y="0" fill="#0000FF" font-family="'MyriadPro-Regular'" font-size="24">v</tspan><tspan x="11.543" y="0" fill="#0000FF" font-family="'MyriadPro-Regular'" font-size="12">i</tspan></text>
<rect x="576.923" y="546.896" fill="none" width="82.667" height="62.667"/>
<text transform="matrix(1 0 0 1 576.9229 563.9365)"><tspan x="0" y="0" fill="#0000FF" font-family="'MyriadPro-Regular'" font-size="24">v</tspan><tspan x="11.544" y="0" fill="#0000FF" font-family="'MyriadPro-Regular'" font-size="12">j</tspan></text>
<rect x="193.256" y="482.052" fill="none" width="82.667" height="62.667"/>
<text transform="matrix(1 0 0 1 193.2563 499.0918)"><tspan x="0" y="0" font-family="'MyriadPro-Regular'" font-size="24">P</tspan><tspan x="12.768" y="0" font-family="'MyriadPro-Regular'" font-size="12">k</tspan></text>
<rect x="618.256" y="413.662" fill="none" width="82.666" height="62.667"/>
<text transform="matrix(1 0 0 1 618.2559 430.7021)"><tspan x="0" y="0" font-family="'MyriadPro-Regular'" font-size="24">P</tspan><tspan x="12.768" y="0" font-family="'MyriadPro-Regular'" font-size="12">j</tspan></text>
<path fill="none" d="M150.332,565.154c0-22.591-93.601-40.871-209.272-40.871"/>
<g>
	<g>
		<path fill="none" stroke="#FF0000" stroke-width="3" d="M378.332,409.329c-0.305,1.995-0.606,3.973-0.904,5.932"/>
		<path fill="none" stroke="#FF0000" stroke-width="3" stroke-dasharray="11.6504,11.6504" d="M375.678,426.78
			c-22.775,150.317-27.377,192.943-74.272,310.579"/>
		<path fill="none" stroke="#FF0000" stroke-width="3" d="M299.242,742.765c-0.738,1.836-1.486,3.69-2.244,5.564"/>
	</g>
</g>
<g>
	<g>
		<path fill="none" stroke="#FF0000" stroke-width="3" d="M598.332,406.329c-0.517,1.946-1.031,3.878-1.543,5.796"/>
		<path fill="none" stroke="#FF0000" stroke-width="3" stroke-dasharray="12.3319,12.3319" d="M593.592,424.034
			c-28.253,104.6-50.904,170.787-113.832,319.097"/>
		<path fill="none" stroke="#FF0000" stroke-width="3" d="M477.348,748.809c-0.777,1.827-1.56,3.668-2.35,5.521"/>
	</g>
</g>
<line fill="none" x1="119" y1="445" x2="119" y2="450"/>
<line fill="none" stroke="#0000FF" stroke-width="3" x1="378.332" y1="409.329" x2="363.665" y2="560.329"/>
<line fill="none" stroke="#0000FF" stroke-width="3" x1="363.665" y1="557.667" x2="356.458" y2="549.453"/>
<line fill="none" stroke="#0000FF" stroke-width="3" x1="363.665" y1="558.329" x2="372.333" y2="549.333"/>
<line fill="none" stroke="#0000FF" stroke-width="3" x1="598.332" y1="406.329" x2="562" y2="563.667"/>
<line fill="none" stroke="#0000FF" stroke-width="3" x1="562" y1="563.667" x2="556" y2="553.831"/>
<line fill="none" stroke="#0000FF" stroke-width="3" x1="562" y1="563.667" x2="571" y2="558.329"/>
</svg>
